<svg width="23" height="26" viewBox="0 0 23 26" fill="none" xmlns="http://www.w3.org/2000/svg">
<g clip-path="url(#clip0)">
<path d="M11.5 10.2913C10.9584 10.2915 10.4291 10.4506 9.97889 10.7483C9.52869 11.0461 9.17785 11.4692 8.97075 11.9641C8.76364 12.4591 8.70955 13.0037 8.81533 13.5291C8.92111 14.0544 9.182 14.537 9.56502 14.9157C9.94804 15.2944 10.436 15.5523 10.9672 15.6567C11.4983 15.7611 12.0489 15.7074 12.5492 15.5024C13.0495 15.2973 13.4772 14.9502 13.778 14.5048C14.0789 14.0593 14.2395 13.5357 14.2395 13C14.2389 12.2816 13.9501 11.5928 13.4364 11.0849C12.9228 10.577 12.2263 10.2916 11.5 10.2913ZM17.9025 8.2093C17.7631 7.85984 17.5526 7.54245 17.284 7.2768C17.0155 7.01116 16.6946 6.80293 16.3413 6.66504C15.2632 6.24406 12.6962 6.33852 11.5 6.33852C10.3038 6.33852 7.7394 6.24051 6.65819 6.66504C6.3049 6.80293 5.98401 7.01116 5.71545 7.2768C5.44689 7.54245 5.23637 7.85984 5.09696 8.2093C4.67188 9.2757 4.76685 11.8173 4.76685 12.9995C4.76685 14.1817 4.67188 16.7202 5.09902 17.7902C5.23843 18.1397 5.44894 18.457 5.7175 18.7227C5.98607 18.9883 6.30695 19.1966 6.66025 19.3345C7.73837 19.7554 10.3053 19.661 11.5021 19.661C12.6988 19.661 15.2621 19.759 16.3433 19.3345C16.6966 19.1966 17.0175 18.9883 17.2861 18.7227C17.5547 18.457 17.7652 18.1397 17.9046 17.7902C18.3333 16.7238 18.2347 14.1822 18.2347 13C18.2347 11.8178 18.3333 9.27977 17.9046 8.2098L17.9025 8.2093ZM11.5 17.1641C10.6674 17.1641 9.85345 16.9198 9.16115 16.4623C8.46885 16.0047 7.92926 15.3544 7.61063 14.5935C7.292 13.8326 7.20863 12.9954 7.37107 12.1876C7.53351 11.3799 7.93445 10.6379 8.52321 10.0556C9.11196 9.47321 9.86208 9.07662 10.6787 8.91595C11.4953 8.75528 12.3418 8.83774 13.111 9.15291C13.8803 9.46808 14.5378 10.0018 15.0003 10.6866C15.4629 11.3713 15.7098 12.1764 15.7098 13C15.7105 13.547 15.6021 14.0888 15.3907 14.5943C15.1794 15.0998 14.8694 15.5591 14.4783 15.9459C14.0872 16.3327 13.6229 16.6394 13.1118 16.8485C12.6008 17.0575 12.053 17.1647 11.5 17.1641ZM15.8833 9.6332C15.689 9.6333 15.4989 9.57638 15.3373 9.46965C15.1756 9.36291 15.0496 9.21114 14.9751 9.03355C14.9007 8.85596 14.8812 8.66052 14.919 8.47194C14.9569 8.28337 15.0504 8.11014 15.1878 7.97415C15.3252 7.83817 15.5003 7.74555 15.6909 7.70801C15.8816 7.67047 16.0792 7.68968 16.2588 7.76323C16.4383 7.83678 16.5918 7.96136 16.6998 8.12121C16.8078 8.28106 16.8655 8.46899 16.8655 8.66125C16.866 8.78892 16.8411 8.91544 16.7921 9.03355C16.7431 9.15167 16.671 9.25905 16.5799 9.34954C16.4888 9.44003 16.3806 9.51184 16.2614 9.56087C16.1423 9.6099 16.0145 9.63517 15.8854 9.63523L15.8833 9.6332ZM20.5357 1.625H2.46429C1.81072 1.625 1.18392 1.88181 0.721773 2.33893C0.259629 2.79605 0 3.41603 0 4.0625L0 21.9375C0 22.584 0.259629 23.204 0.721773 23.6611C1.18392 24.1182 1.81072 24.375 2.46429 24.375H20.5357C21.1893 24.375 21.8161 24.1182 22.2782 23.6611C22.7404 23.204 23 22.584 23 21.9375V4.0625C23 3.41603 22.7404 2.79605 22.2782 2.33893C21.8161 1.88181 21.1893 1.625 20.5357 1.625ZM19.6568 16.3516C19.5906 17.6531 19.2902 18.8063 18.3297 19.7539C17.3691 20.7015 16.2042 21.0046 14.8899 21.0666C13.5341 21.1423 9.46902 21.1423 8.11315 21.0666C6.79732 21.0011 5.63551 20.7035 4.67342 19.7539C3.71132 18.8043 3.40893 17.6505 3.34629 16.3516C3.2698 15.0099 3.2698 10.9886 3.34629 9.64844C3.41252 8.34691 3.70926 7.19367 4.67342 6.24609C5.63757 5.29852 6.80246 4.99891 8.11315 4.93695C9.46902 4.86129 13.5341 4.86129 14.8899 4.93695C16.2058 5.00246 17.3712 5.30004 18.3297 6.24965C19.2882 7.19926 19.5942 8.35301 19.6568 9.65453C19.7333 10.9911 19.7333 15.0089 19.6568 16.3516Z" fill="#003C6D"/>
</g>
<defs>
<clipPath id="clip0">
<rect width="23" height="26" fill="white"/>
</clipPath>
</defs>
</svg>
