<svg width="26" height="26" viewBox="0 0 26 26" fill="none" xmlns="http://www.w3.org/2000/svg">
<path d="M23.3274 7.70407C23.3439 7.93502 23.3439 8.16603 23.3439 8.39698C23.3439 15.4414 17.9823 23.5581 8.18274 23.5581C5.16369 23.5581 2.35914 22.6837 0 21.166C0.428949 21.2155 0.841344 21.232 1.2868 21.232C3.77787 21.232 6.07105 20.3906 7.90227 18.9554C5.55963 18.9059 3.59643 17.3716 2.92002 15.2599C3.25 15.3094 3.57993 15.3424 3.92641 15.3424C4.40482 15.3424 4.88328 15.2764 5.32868 15.1609C2.88707 14.666 1.05579 12.5213 1.05579 9.93124V9.86527C1.76516 10.2612 2.5901 10.5087 3.4644 10.5416C2.02912 9.58475 1.0888 7.95153 1.0888 6.1038C1.0888 5.11397 1.35271 4.20661 1.81467 3.41473C4.43777 6.64823 8.38068 8.75986 12.802 8.99087C12.7195 8.59493 12.67 8.18253 12.67 7.77009C12.67 4.83351 15.0456 2.44141 17.9987 2.44141C19.5329 2.44141 20.9187 3.0848 21.8921 4.12414C23.0963 3.89319 24.2511 3.44774 25.274 2.83735C24.878 4.07468 24.0367 5.11402 22.9314 5.77388C24.0037 5.65845 25.0431 5.36143 25.9999 4.94904C25.2741 6.00483 24.3667 6.94515 23.3274 7.70407Z" fill="#003C6D"/>
</svg>
