<svg width="19" height="26" viewBox="0 0 19 26" fill="none" xmlns="http://www.w3.org/2000/svg">
<g clip-path="url(#clip0)">
<path d="M2.12273 12.2034L7.05185 14.6719C8.00185 15.1493 7.85341 16.5767 6.82919 16.8408L1.50919 18.2022C1.35302 18.2425 1.19025 18.248 1.03184 18.2184C0.873421 18.1887 0.723031 18.1246 0.590787 18.0303C0.458543 17.936 0.347511 17.8137 0.265164 17.6717C0.182816 17.5297 0.131062 17.3712 0.113383 17.2069C-0.0498563 15.7467 0.10218 14.2674 0.558696 12.8743C0.60991 12.7182 0.692961 12.5752 0.802307 12.4547C0.911653 12.3342 1.04478 12.2391 1.1928 12.1756C1.34082 12.1121 1.50033 12.0818 1.66069 12.0866C1.82105 12.0914 1.97857 12.1312 2.12273 12.2034ZM4.29982 24.3529C5.47916 25.1821 6.81996 25.7384 8.22945 25.9834C8.38807 26.0114 8.55067 26.0041 8.70633 25.9622C8.86199 25.9202 9.00709 25.8446 9.13188 25.7403C9.25666 25.636 9.35824 25.5055 9.42977 25.3575C9.5013 25.2095 9.54113 25.0476 9.54659 24.8825L9.73956 19.2549C9.77419 18.1733 8.47784 17.6345 7.76979 18.4374L4.09794 22.6217C3.99042 22.7445 3.9097 22.8895 3.86119 23.0469C3.81267 23.2043 3.79749 23.3705 3.81665 23.5344C3.83581 23.6983 3.88888 23.8561 3.97229 23.9973C4.0557 24.1384 4.16754 24.2597 4.30031 24.3529H4.29982ZM11.4911 18.771L14.401 23.5444C14.4868 23.6846 14.6007 23.8044 14.7351 23.8958C14.8695 23.9872 15.0214 24.0481 15.1806 24.0746C15.3398 24.101 15.5026 24.0923 15.6583 24.049C15.8139 24.0058 15.9588 23.929 16.0833 23.8237C17.1861 22.8881 18.0762 21.7163 18.6913 20.3904C18.7591 20.2411 18.7954 20.0788 18.7977 19.9141C18.8001 19.7495 18.7684 19.5861 18.7049 19.4349C18.6414 19.2836 18.5475 19.1479 18.4293 19.0365C18.311 18.9252 18.1712 18.8407 18.0189 18.7888L12.8028 17.049C11.7979 16.7189 10.932 17.8513 11.4911 18.771ZM18.8304 12.0562C18.2601 10.7097 17.4086 9.50817 16.3361 8.53653C16.2154 8.42799 16.0736 8.34705 15.9201 8.2991C15.7666 8.25114 15.6049 8.23727 15.4458 8.25841C15.2867 8.27954 15.1338 8.3352 14.9972 8.42168C14.8607 8.50816 14.7436 8.62348 14.6538 8.75997L11.5861 13.4278C10.9973 14.3266 11.8187 15.49 12.833 15.1904L18.1095 13.6411C18.2641 13.5944 18.4073 13.5145 18.5296 13.4067C18.6519 13.2989 18.7505 13.1656 18.8188 13.0158C18.8872 12.8659 18.9237 12.7029 18.9261 12.5375C18.9284 12.372 18.8964 12.208 18.8323 12.0562H18.8304ZM3.07323 1.53228C2.93307 1.60151 2.80833 1.69966 2.70681 1.82061C2.60529 1.94155 2.52916 2.08269 2.48319 2.2352C2.43722 2.3877 2.42239 2.5483 2.43963 2.70696C2.45687 2.86561 2.5058 3.01891 2.58338 3.15728L7.73515 12.3202C8.31406 13.346 9.84346 12.9245 9.84346 11.7413V1.16157C9.84486 1.00169 9.8138 0.843264 9.75225 0.696384C9.6907 0.549504 9.60002 0.417393 9.48597 0.308469C9.37193 0.199545 9.23703 0.116197 9.08986 0.0637348C8.9427 0.0112728 8.7865 -0.00915234 8.63122 0.00376081C6.70321 0.161006 4.81952 0.679044 3.07323 1.53228Z" fill="#003C6D"/>
</g>
<defs>
<clipPath id="clip0">
<rect width="19" height="26" fill="white"/>
</clipPath>
</defs>
</svg>
